<svg xmlns="http://www.w3.org/2000/svg" xml:space="preserve" width="360" height="138" viewBox="33.67 30.42 360 138.2"><g class="layer"><path fill="#fff" d="M33.67 30.42h360v138.2h-360z"/><path fill="#040404" d="M172.64 120V50.75h25.44c-3.21-7.23-6.1-13.76-9.14-20.61H393.7v138.55c-1.51.08-2.96.23-4.41.23-44.32.02-88.65-.03-132.97.1-3.56.01-5.36-1.01-6.61-4.34-1.79-4.78-4.14-9.35-6.45-14.47 2.99-.13 5.41-.25 8.14-.37V51.12h-18.61v72.99c-.38.11-.76.21-1.15.32-4.57-9.96-9.13-19.91-13.79-30.05-1.87 1.3-3.35 2.32-5.31 3.68 6.88 3.46 7.27 9.62 7.24 16.04-.06 11.79-.02 23.58-.02 35.64h-19.53c0-12.85.08-25.48-.03-38.1-.05-5.68-1.09-6.52-7.26-6.55v44.58h-20.3V120m134.99-23.13c-1.15-.75-2.3-1.5-3.77-2.45 5.6-2.02 8.3-6.17 8.61-11.17.4-6.58.27-13.3-.65-19.82-.91-6.49-5.37-11.36-11.89-11.78-11.34-.73-22.76-.2-34.27-.2v98.37c10.49 0 20.79.35 31.03-.21 3.35-.18 7.17-2.06 9.75-4.33 9.86-8.69 10.71-38.21 1.19-48.41m18.18-14.36c.08 15.3-.43 30.64.42 45.91.83 14.72 9.84 22.53 23.99 22.57 14.11.05 23.06-7.81 24.05-22.5.83-12.09.47-24.27.48-36.41.01-7.49.19-15.01-.54-22.44-1.06-10.87-7.55-17.57-17.68-19.44-18.82-3.46-30.58 6.23-30.72 25.32-.01 2 0 4 0 6.99m-124.52 1c.15-2.31.49-4.62.43-6.92-.19-7.31-1.37-8.23-8.74-7.17v17.86c3.35.22 6.67 1.25 8.31-3.77z"/><path fill="#060606" d="M115.44 141.44c-1.57-5.54-3.91-10.76-4.09-16.05-.53-15.48-.21-30.98-.17-46.48.01-2.49.24-4.99.52-7.47 2.63-22.87 21.36-24.34 34.9-19.63 8 2.78 12.43 8.96 13.03 17.31.5 6.76.1 13.59.1 20.72h-19.58c0-4.02.03-8.12-.02-12.22-.03-1.99.27-4.2-.49-5.9-.66-1.51-2.58-3.38-3.97-3.4-1.42-.02-3.3 1.77-4.17 3.24-.76 1.28-.53 3.23-.53 4.88-.03 16-.03 32-.02 47.99 0 1.17-.34 2.61.21 3.44 1.16 1.75 2.81 3.19 4.25 4.75 1.5-1.49 3.89-2.78 4.28-4.52.76-3.34.4-6.94.45-10.44.04-3.29.01-6.59.01-10.19h20.11c-.69 10.32 1.67 20.83-2.22 30.88-1.19 3.07-3.7 6.04-6.36 8.07-8 6.09-27.3 7.88-36.24-4.98z"/><path fill="#050505" d="M59.15 54.07c8.87-5.81 17.97-5.36 27.06-2.07 6.96 2.52 10.02 8.47 11.43 15.28.76 3.67.96 7.46 1.46 11.53H78.61c0-2.09.04-4.21-.01-6.32-.08-3.11-2.03-5-4.77-4.23-1.65.47-4.05 3.37-3.75 4.6.79 3.21 2.35 6.59 4.55 9.04 5.34 5.92 11.55 11.06 16.82 17.04 9.83 11.16 11.25 31.54 2.83 43.86-2.15 3.15-6.23 6.26-9.83 6.83-6.22 1-12.89.74-19.12-.37-6.91-1.23-11.43-6.4-12.74-13.26-1.39-7.29-1.75-14.78-2.61-22.68h20.59c0 4.61-.07 9.24.03 13.86.06 2.96 1.23 5.38 4.59 5.41 3.76.03 4.48-2.72 4.63-5.81.29-6.06-.97-11.6-5.42-16.04-5.18-5.17-10.55-10.15-15.59-15.45-11.07-11.63-10.98-30.15.34-41.22z"/><path fill="#F9F9F9" d="M307.92 97.09c9.23 9.98 8.38 39.5-1.48 48.19-2.58 2.27-6.4 4.15-9.75 4.33-10.24.56-20.54.21-31.03.21V51.45c11.51 0 22.93-.53 34.27.2 6.52.42 10.98 5.29 11.89 11.78.92 6.52 1.05 13.24.65 19.82-.31 5-3.01 9.15-8.61 11.17 1.47.95 2.62 1.7 4.06 2.67m-17.11 6.94h-5.68v28.03c7.06.64 9.31-1.2 9.45-7.63.08-4.16.36-8.36-.12-12.46-.31-2.63-1.85-5.1-3.65-7.94m-4.39-38.02c-.52.5-1.49.99-1.5 1.5-.1 6.73-.06 13.47-.06 20.14 7.14.79 8.12.03 8.4-6.42.14-3.15-.01-6.3.08-9.44.11-4.18-1.75-6.21-6.92-5.78z"/><path fill="#FAFAFA" d="M325.81 82.01c0-2.49-.01-4.49 0-6.49.14-19.09 11.9-28.78 30.72-25.32 10.13 1.87 16.62 8.57 17.68 19.44.73 7.43.55 14.95.54 22.44-.01 12.14.35 24.32-.48 36.41-.99 14.69-9.94 22.55-24.05 22.5-14.15-.04-23.16-7.85-23.99-22.57-.85-15.27-.34-30.61-.42-46.41m19.62 26.49c.16 6.63.07 13.29.66 19.89.14 1.53 2.55 3.89 4.02 3.97 1.39.08 3.11-2.2 4.3-3.73.62-.8.55-2.24.55-3.39.02-16.94.05-33.89-.03-50.84-.01-2.9-.55-6.03-4.22-6.29-4.01-.29-4.77 2.88-5.11 6-.18 1.65-.16 3.32-.16 4.98-.02 9.47-.01 18.94-.01 29.41z"/><path fill="#EFEFEF" d="M201.17 83.9c-1.52 4.63-4.84 3.6-8.19 3.38 0-6.06 0-11.96.01-17.86 7.36-1.06 8.54-.14 8.73 7.17.06 2.3-.28 4.61-.55 7.31z"/><path fill="#0F0F0F" d="M291.21 104.18c1.4 2.69 2.94 5.16 3.25 7.79.48 4.1.2 8.3.12 12.46-.14 6.43-2.39 8.27-9.45 7.63v-28.03c1.87 0 3.77 0 6.08.15z"/><path fill="#0A0A0A" d="M286.87 66c4.72-.42 6.58 1.61 6.47 5.79-.09 3.14.06 6.29-.08 9.44-.28 6.45-1.26 7.21-8.4 6.42 0-6.67-.04-13.41.06-20.14.01-.51.98-1 1.95-1.51z"/><path fill="#151515" d="M345.43 108c0-9.97-.01-19.44.01-28.91 0-1.66-.02-3.33.16-4.98.34-3.12 1.1-6.29 5.11-6 3.67.26 4.21 3.39 4.22 6.29.08 16.95.05 33.9.03 50.84 0 1.15.07 2.59-.55 3.39-1.19 1.53-2.91 3.81-4.3 3.73-1.47-.08-3.88-2.44-4.02-3.97-.59-6.6-.5-13.26-.66-20.39z"/></g></svg>